# xmcd
#
# Track frame offsets:
#	150
#	16655
#	31438
#	48901
#	66430
#	85981
#	103264
#	121550
#	138217
#	152608
#	162616
#	180431
#	193972
#	206298
#	220189
#	231435
#	244057
#	258920
#	273783
#	290940
#
# Disc length: 4094 seconds
#
# Revision: 1
# Processed by: cddbd v1.5.1PL0 Copyright (c) Steve Scherf et al.
# Submitted via: EasyCDDAExtractor 6.2.0.3
#
DISCID=1e0ffc14
DTITLE=Milionário and José Rico - As 20 Mais Volume 02
DYEAR=1998
DGENRE=Country
TTITLE0=Sonho De Um Caminhoneiro
TTITLE1=Boneca Cobiçada
TTITLE2=Meu Mundo Vazio
TTITLE3=Praia Deserta
TTITLE4=Sonho Alto
TTITLE5=Herói Da Velocidade
TTITLE6=Vai E Vem Do Carreiro
TTITLE7=Quem Disse Que Te Esqueci
TTITLE8=Dinguinho
TTITLE9=Estrada Da Vida
TTITLE10=Meu Grito
TTITLE11=Dê Amor Pra Quem Te Ama
TTITLE12=Coração De Pedra
TTITLE13=Nosso Filho
TTITLE14=Três Pedidos De Amor
TTITLE15=De Longe Também Se Ama
TTITLE16=Livro Da Vida
TTITLE17=Distante Dela
TTITLE18=Solidão
TTITLE19=Ancestrais
EXTD=
EXTT0=
EXTT1=
EXTT2=
EXTT3=
EXTT4=
EXTT5=
EXTT6=
EXTT7=
EXTT8=
EXTT9=
EXTT10=
EXTT11=
EXTT12=
EXTT13=
EXTT14=
EXTT15=
EXTT16=
EXTT17=
EXTT18=
EXTT19=
PLAYORDER=
